# AST/ASF file generated using VICON BodyLanguage
# -----------------------------------------------
:version 1.10
:name VICON
:units
  mass 1.0
  length 0.45
  angle deg
:documentation
   .ast/.asf automatically generated from VICON data using
   VICON BodyBuilder and BodyLanguage model FoxedUp or BRILLIANT.MOD
:root
   order TX TY TZ RX RY RZ
   axis XYZ
   position 0 0 0  
   orientation 0 0 0 
:bonedata
  begin
     id 1 
     name lhipjoint
     direction 0.610259 -0.730986 0.305356 
     length 2.50941 
     axis 0 0 0  XYZ
  end
  begin
     id 2 
     name lfemur
     direction 0.34202 -0.939693 0  
     length 7.48822  
     axis 0 0 20  XYZ
    dof rx ry rz
    limits (-160.0 20.0)
           (-70.0 70.0)
           (-60.0 70.0)
  end
  begin
     id 3 
     name ltibia
     direction 0.34202 -0.939693 0   
     length 7.60141   
     axis 0 0 20   XYZ
    dof rx
    limits (-10.0 170.0)
  end
  begin
     id 4 
     name lfoot
     direction 0.0673488 -0.185039 0.980421   
     length 2.04049   
     axis -90 7.62852e-016 20   XYZ
    dof rx rz
    limits (-45.0 90.0)
           (-70.0 20.0)
  end
  begin
     id 5 
     name ltoes
     direction 1.5356e-011 -4.21729e-011 1   
     length 1.02897   
     axis -90 7.62852e-016 20   XYZ
    dof rx
    limits (-90.0 20.0)
  end
  begin
     id 6 
     name rhipjoint
     direction -0.57612 -0.754205 0.315056   
     length 2.43216  
     axis 0 0 0  XYZ 
  end
  begin
     id 7 
     name rfemur
     direction -0.34202 -0.939693 0   
     length 7.42799   
     axis 0 0 -20   XYZ
    dof rx ry rz
    limits (-160.0 20.0)
           (-70.0 70.0)
           (-70.0 60.0)
  end
  begin
     id 8 
     name rtibia
     direction -0.34202 -0.939693 0   
     length 7.69484   
     axis 0 0 -20   XYZ
    dof rx
    limits (-10.0 170.0)
 end
 begin
     id 9 
     name rfoot
     direction -0.111837 -0.30727 0.945028   
     length 2.15769  
     axis -90 -7.62852e-016 -20   XYZ
    dof rx rz
    limits (-45.0 90.0)
           (-20.0 70.0)
  end
  begin
     id 10 
     name rtoes
     direction -1.53539e-011 -4.21878e-011 1   
     length 1.07391   
     axis -90 -7.62852e-016 -20   XYZ
    dof rx
    limits (-90.0 20.0)
  end
  begin
     id 11 
     name lowerback
     direction 0.00552624 0.990109 -0.140195   
     length 2.12403   
     axis 0 0 0   XYZ
    dof rx ry rz
    limits (-20.0 45.0)
           (-30.0 30.0)
           (-30.0 30.0)
  end
  begin
     id 12 
     name upperback
     direction 0.00361898 0.999976 -0.00584723   
     length 2.13232   
     axis 0 0 0   XYZ
    dof rx ry rz
    limits (-20.0 45.0)
           (-30.0 30.0)
           (-30.0 30.0)
  end
  begin
     id 13 
     name thorax
     direction -0.000331275 0.998253 0.0590847   
     length 2.17688   
     axis 0 0 0   XYZ
    dof rx ry rz
    limits (-20.0 45.0)
           (-30.0 30.0)
           (-30.0 30.0)
  end
  begin
     id 14 
     name lowerneck
     direction -0.0561561 0.979832 0.19177   
     length 1.64159   
     axis 0 0 0   XYZ
    dof rx ry rz
    limits (-20.0 45.0)
           (-30.0 30.0)
           (-30.0 30.0)
  end
  begin
     id 15 
     name upperneck
     direction 0.0827153 0.979385 -0.184293   
     length 1.68939   
     axis 0 0 0   XYZ
    dof rx ry rz
    limits (-20.0 45.0)
           (-30.0 30.0)
           (-30.0 30.0)
  end
  begin
     id 16
     name head
     direction 0.0278583 0.995936 -0.0856488  
     length 1.70207  
     axis 0 0 0   XYZ
    dof rx ry rz
    limits (-20.0 45.0)
           (-30.0 30.0)
           (-30.0 30.0)
  end
  begin
     id 17 
     name lclavicle
     direction 0.950993 0.301131 -0.0702275  
     length 3.41652  
     axis 0 0 0   XYZ
    dof ry rz
    limits (-20.0 10.0)
           (0.0 20.0)
  end
  begin
     id 18 
     name lhumerus
     direction 1 -4.48981e-011 -3.9662e-029   
     length 5.32955   
     axis 180 -30 -90   XYZ
    dof rx ry rz
    limits (-60.0 90.0)
           (-90.0 90.0)
           (-90.0 90.0)
  end
  begin
     id 19
     name lradius
     direction 1 -4.48925e-011 -9.0549e-027   
     length 3.69232   
     axis 180 -30 -90   XYZ
    dof rx
    limits (-10.0 170.0)
  end
  begin
     id 20
     name lwrist
     direction 1 -4.49007e-011 -1.49005e-026   
     length 1.84616   
     axis 9.0955e-015 90 90   XYZ
    dof ry
    limits (-180.0 0.0)
 end
  begin
     id 21 
     name lhand
     direction 1 -4.49016e-011 -2.98023e-026   
     length 0.536598   
     axis 1.90115e-014 90 90   XYZ
    dof rx rz
    limits (-90.0 90.0)
           (-45.0 45.0)
  end
  begin
     id 22 
     name lfingers
     direction 1 -4.48924e-011 -5.9578e-026   
     length 0.432619   
     axis 3.80223e-014 90 90   XYZ
    dof rx
    limits (0.0 90.0)
  end
  begin
     id 23
     name lthumb
     direction 0.707107 -6.34947e-011 0.707107   
     length 0.621157   
     axis -90 45 -3.84942e-014   XYZ
    dof rx rz
    limits (-45.0 45.0)
           (-45.0 45.0)
  end
  begin
     id 24 
     name rclavicle
     direction -0.955495 0.276497 -0.102848   
     length 3.36357  
     axis 0 0 0   XYZ 
    dof ry rz
    limits (-10.0 20.0)
           (-20.0 0.0)
  end
  begin
     id 25 
     name rhumerus
     direction -1 -4.48961e-011 3.30983e-027  
     length 5.23431   
     axis 180 30 90   XYZ
    dof rx ry rz
    limits (-90.0 60.0)
           (-90.0 90.0)
           (-90.0 90.0)
  end
  begin
     id 26 
     name rradius
     direction -1 -4.48965e-011 -6.63263e-027   
     length 3.55301   
     axis 180 30 90   XYZ
    dof rx
    limits (-10.0 170.0)
  end
  begin
     id 27 
     name rwrist
     direction -1 -4.48942e-011 -1.48958e-026   
     length 1.77651   
     axis 9.0955e-015 -90 -90   XYZ
    dof ry
    limits (-180.0 0.0)
  end
  begin
     id 28
     name rhand
     direction -1 -4.48977e-011 -2.97966e-026   
     length 0.772522   
     axis 1.90115e-014 -90 -90   XYZ
    dof rx rz
    limits (-90.0 90.0)
           (-45.0 45.0)
  end
  begin
     id 29
     name rfingers
     direction -1 -4.49135e-011 -5.96389e-026   
     length 0.622827   
     axis 3.80223e-014 -90 -90   XYZ
    dof rx
    limits (0.0 90.0)
  end
  begin
     id 30
     name rthumb
     direction -0.707107 -6.34969e-011 0.707107   
     length 0.894259   
     axis -90 -45 3.84942e-014   XYZ
    dof rx rz
    limits (-45.0 45.0)
           (-45.0 45.0)
  end
:hierarchy
  begin
    root lhipjoint rhipjoint lowerback
    lhipjoint lfemur
    lfemur ltibia
    ltibia lfoot
    lfoot ltoes
    rhipjoint rfemur
    rfemur rtibia
    rtibia rfoot
    rfoot rtoes
    lowerback upperback
    upperback thorax
    thorax lowerneck lclavicle rclavicle
    lowerneck upperneck
    upperneck head
    lclavicle lhumerus
    lhumerus lradius
    lradius lwrist
    lwrist lhand lthumb
    lhand lfingers
    rclavicle rhumerus
    rhumerus rradius
    rradius rwrist
    rwrist rhand rthumb
    rhand rfingers
  end

#!OML:ASF F:\VICON\USERDATA\INSTALL\rory3\rory3.ASF
:FULLY-SPECIFIED
:DEGREES
45
root -7.97752 17.7465 -9.17047 -37.7328 -77.7253 38.5551
lowerback 11.129 1.86208 -2.14017
upperback 1.17039 2.1761 0.0906013
thorax -5.09893 1.1007 0.966896
lowerneck -15.5717 2.97099 -9.12863
upperneck 41.5307 5.11887 2.95179
head 17.6435 0.547219 3.80431
rclavicle -2.06736e-014 -1.82882e-014
rhumerus -36.466 -23.8473 -67.0496
rradius 32.975
rwrist 4.73494
rhand -18.2556 9.68043
rfingers 7.12502
rthumb 8.02369 -20.1473
lclavicle -2.06736e-014 -1.82882e-014
lhumerus -33.1419 6.79101 83.233
lradius 35.33
lwrist -3.96919
lhand -20.025 25.04
lfingers 7.12502
lthumb 6.31565 54.9259
rfemur -5.22721 9.10324 -0.956234
rtibia 36.2116
rfoot -10.2734 -19.9927
rtoes 19.6447
lfemur -1.01798 -3.1476 -21.0046
ltibia 9.07736
lfoot -5.47538 -4.8978
ltoes -23.5635
46
root -7.97174 17.7534 -9.08863 -37.4809 -77.8277 38.2712
lowerback 11.2191 1.87617 -2.20465
upperback 1.22711 2.18694 0.155786
thorax -5.09504 1.10675 1.06796
lowerneck -15.6532 3.0936 -9.15834
upperneck 41.5757 5.29879 3.03917
head 17.6661 0.625828 3.8863
rclavicle -8.84592e-015 7.95139e-016
rhumerus -36.314 -23.5505 -67.606
rradius 33.0699
rwrist 5.09948
rhand -18.0769 9.85315
rfingers 7.12502
rthumb 8.19612 -19.9679
lclavicle -8.84592e-015 7.95139e-016
lhumerus -33.1221 6.62653 83.1166
lradius 35.8845
lwrist -3.67257
lhand -19.67 24.6551
lfingers 7.12502
lthumb 6.65836 54.5304
rfemur -5.60593 9.27165 -0.554847
rtibia 36.5811
rfoot -11.5212 -18.2727
rtoes 17.2559
lfemur -1.24072 -2.98241 -21.1788
ltibia 9.65412
lfoot -5.90106 -4.92583
ltoes -24.0633
47
root -7.97412 17.7636 -8.99775 -36.7874 -78.001 37.7097
lowerback 11.0261 1.89863 -2.02561
upperback 1.24418 2.24498 0.169824
thorax -4.96537 1.13131 0.979087
lowerneck -15.8045 3.1157 -9.08129
upperneck 41.6226 5.30358 3.1087
head 17.7299 0.6468 3.91457
rclavicle -2.64384e-014 -8.74653e-015
rhumerus -36.2693 -23.4515 -68.1085
rradius 33.1885
rwrist 5.49802
rhand -17.8031 10.1145
rfingers 7.12502
rthumb 8.46039 -19.696
lclavicle -2.64384e-014 -8.74653e-015
lhumerus -33.0589 6.4247 82.9354
lradius 36.3803
lwrist -3.40976
lhand -19.1146 24.3651
lfingers 7.12502
lthumb 7.19454 54.2228
rfemur -6.19003 9.25701 -0.116727
rtibia 36.9265
rfoot -12.6083 -16.1652
rtoes 15.5769
lfemur -1.63091 -2.8018 -21.3318
ltibia 10.2565
lfoot -6.19429 -4.97661
ltoes -22.9305
48
root -7.96735 17.7735 -8.92091 -35.9761 -78.1 36.967
lowerback 11.0605 1.89022 -1.93755
upperback 1.20789 2.24474 0.182434
thorax -5.01968 1.1304 0.941035
lowerneck -15.7765 3.14233 -8.96313
upperneck 41.5264 5.31062 3.09116
head 17.6698 0.67484 3.88173
rclavicle -6.06293e-015 7.95139e-015
rhumerus -36.2088 -23.0897 -68.7215
rradius 33.256
rwrist 5.85691
rhand -17.6942 10.3607
rfingers 7.12502
rthumb 8.56549 -19.4456
lclavicle -6.06293e-015 7.95139e-015
lhumerus -33.0776 6.16391 82.7117
lradius 36.8932
lwrist -3.01384
lhand -19.124 24.6662
lfingers 7.12502
lthumb 7.18547 54.5242
rfemur -6.72099 9.08376 0.384472
rtibia 37.2771
rfoot -13.6608 -13.9509
rtoes 15.0887
lfemur -2.00138 -2.96626 -21.4087
ltibia 10.8521
lfoot -6.37995 -4.75696
ltoes -21.8532
49
root -7.96405 17.7817 -8.84588 -35.4063 -78.2343 36.422
lowerback 11.0864 1.89789 -1.94203
upperback 1.21179 2.25739 0.252031
thorax -5.03345 1.13735 1.01353
lowerneck -15.7205 3.1546 -8.93418
upperneck 41.3555 5.36783 2.97226
head 17.5598 0.700468 3.82197
rclavicle 1.58034e-014 -3.18055e-015
rhumerus -36.1178 -22.7702 -69.2081
rradius 33.3537
rwrist 6.44225
rhand -17.4558 10.7002
rfingers 7.12502
rthumb 8.79549 -19.0966
lclavicle 1.58034e-014 -3.18055e-015
lhumerus -33.0867 5.93401 82.5787
lradius 37.3638
lwrist -2.31153
lhand -19.7924 25.2016
lfingers 7.12502
lthumb 6.54022 55.0806
rfemur -7.21495 8.97744 0.932906
rtibia 37.6173
rfoot -14.5711 -11.9858
rtoes 13.4271
lfemur -2.32574 -2.91478 -21.5018
ltibia 11.4876
lfoot -6.70804 -4.61682
ltoes -21.1556
50
root -7.95982 17.7859 -8.77187 -34.8119 -78.3449 35.7818
lowerback 11.2055 1.91686 -1.9197
upperback 1.23531 2.28541 0.32
thorax -5.07804 1.15089 1.06441
lowerneck -15.689 3.23215 -8.83605
upperneck 41.3386 5.50556 2.84082
head 17.5408 0.754911 3.76629
rclavicle 8.07066e-014 -2.3059e-014
rhumerus -36.0796 -22.5594 -69.6435
rradius 33.5136
rwrist 7.05937
rhand -17.2374 10.8395
rfingers 7.12502
rthumb 9.00623 -18.9483
lclavicle 8.07066e-014 -2.3059e-014
lhumerus -32.9798 5.92813 82.3868
lradius 37.5848
lwrist -1.91253
lhand -20.1897 25.1759
lfingers 7.12502
lthumb 6.15666 55.0665
rfemur -7.62465 8.91738 1.57262
rtibia 37.9571
rfoot -15.252 -10.4388
rtoes 9.42286
lfemur -2.55094 -3.01311 -21.5899
ltibia 12.0889
lfoot -6.94843 -4.43586
ltoes -20.3397
51
root -7.9546 17.7905 -8.69949 -33.6545 -78.4045 34.6332
lowerback 11.2608 1.84867 -1.85359
upperback 1.24036 2.20556 0.394629
thorax -5.10117 1.11083 1.1162
lowerneck -15.7677 3.37098 -8.66849
upperneck 41.4326 5.69382 2.78622
head 17.6065 0.841588 3.75163
rclavicle -4.67144e-015 1.19271e-014
rhumerus -35.9479 -22.1421 -70.2459
rradius 33.6273
rwrist 7.44456
rhand -17.177 11.0606
rfingers 7.12502
rthumb 9.06457 -18.7246
lclavicle -4.67144e-015 1.19271e-014
lhumerus -32.8276 6.03947 82.1089
lradius 37.7263
lwrist -1.6367
lhand -19.5303 25.1701
lfingers 7.12502
lthumb 6.79326 55.0411
rfemur -8.04985 8.79691 2.3213
rtibia 38.301
rfoot -16.064 -9.15313
rtoes 6.67878
lfemur -2.83041 -3.3105 -21.6101
ltibia 12.6361
lfoot -7.08183 -4.22679
ltoes -19.3596
52
root -7.95202 17.8002 -8.63393 -32.6055 -78.4513 33.6255
lowerback 11.2885 1.80707 -1.85236
upperback 1.22438 2.15193 0.429132
thorax -5.13279 1.0851 1.15894
lowerneck -15.8757 3.43202 -8.58103
upperneck 41.4884 5.72912 2.89225
head 17.6582 0.880365 3.79829
rclavicle -1.2921e-015 1.35174e-014
rhumerus -35.8284 -21.8767 -70.8389
rradius 33.6889
rwrist 7.82779
rhand -17.0075 11.4319
rfingers 7.12502
rthumb 9.22809 -18.3461
lclavicle -1.2921e-015 1.35174e-014
lhumerus -32.7425 6.05919 81.7878
lradius 37.9776
lwrist -1.47627
lhand -18.5683 25.1728
lfingers 7.12502
lthumb 7.72184 55.0118
rfemur -8.52787 8.55173 3.07647
rtibia 38.675
rfoot -16.9778 -8.01622
rtoes 4.79606
lfemur -3.11529 -3.51765 -21.6111
ltibia 13.1401
lfoot -7.17922 -4.22153
ltoes -17.3152
53
root -7.95017 17.8071 -8.57572 -31.9927 -78.4317 33.0903
lowerback 11.2941 1.8098 -2.0074
upperback 1.19631 2.13752 0.445069
thorax -5.17123 1.08212 1.26445
lowerneck -15.8901 3.45311 -8.52635
upperneck 41.4499 5.71593 2.96804
head 17.6366 0.898822 3.82047
rclavicle 1.63997e-014 1.90833e-014
rhumerus -35.7853 -21.7119 -71.358
rradius 33.8295
rwrist 8.16872
rhand -16.6897 11.5639
rfingers 7.12502
rthumb 9.5347 -18.2004
lclavicle 1.63997e-014 1.90833e-014
lhumerus -32.7449 6.19984 81.4701
lradius 38.2396
lwrist -1.55809
lhand -18.7591 24.7661
lfingers 7.12502
lthumb 7.53772 54.6118
rfemur -9.08132 8.14975 3.72317
rtibia 39.0818
rfoot -17.9109 -6.93773
rtoes 3.5495
lfemur -3.45566 -3.40131 -21.6964
ltibia 13.6667
lfoot -7.35398 -4.46773
ltoes -15.795
54
root -7.94602 17.8056 -8.51694 -31.1276 -78.3955 32.3461
lowerback 11.2672 1.82566 -2.11328
upperback 1.1579 2.14865 0.47772
thorax -5.20229 1.09119 1.35646
lowerneck -15.8932 3.47832 -8.31352
upperneck 41.3689 5.73753 2.84574
head 17.604 0.931353 3.72804
rclavicle -1.30204e-014 -1.51076e-014
rhumerus -35.7601 -21.3531 -71.8379
rradius 33.9928
rwrist 8.22718
rhand -16.3482 11.8162
rfingers 7.12502
rthumb 9.86422 -17.9327
lclavicle -1.30204e-014 -1.51076e-014
lhumerus -32.6842 6.37882 81.1903
lradius 38.3966
lwrist -1.51723
lhand -18.8629 24.7216
lfingers 7.12502
lthumb 7.43744 54.5708
rfemur -9.69649 7.61359 4.41272
rtibia 39.4996
rfoot -18.8444 -5.98115
rtoes 3.27334
lfemur -3.86746 -3.37862 -21.7794
ltibia 14.1959
lfoot -7.631 -4.49629
ltoes -16.7512
55
root -7.94238 17.8034 -8.46091 -30.2352 -78.407 31.5361
lowerback 11.2635 1.79214 -2.25479
upperback 1.12809 2.09265 0.576897
thorax -5.23819 1.06856 1.54836
lowerneck -15.9346 3.56745 -8.24037
upperneck 41.3435 5.89932 2.74919
head 17.5951 0.996658 3.69967
rclavicle 1.69961e-014 7.95139e-016
rhumerus -35.7294 -20.8436 -72.3227
rradius 34.2225
rwrist 8.57023
rhand -16.4422 11.8678
rfingers 7.12502
rthumb 9.77354 -17.8854
lclavicle 1.69961e-014 7.95139e-016
lhumerus -32.5978 6.8093 80.8935
lradius 38.4517
lwrist -1.26778
lhand -18.7475 25.0269
lfingers 7.12502
lthumb 7.54892 54.8722
rfemur -10.2575 7.02261 5.22837
rtibia 39.8759
rfoot -19.5782 -5.31115
rtoes 2.05428
lfemur -4.24894 -3.4133 -21.8206
ltibia 14.777
lfoot -7.97867 -4.43518
ltoes -17.1847
56
root -7.94055 17.8008 -8.4053 -29.0107 -78.5291 30.1566
lowerback 11.4644 1.75011 -2.18751
upperback 1.1369 2.04663 0.706369
thorax -5.3413 1.04593 1.64842
lowerneck -15.8768 3.61574 -8.34435
upperneck 41.3119 5.97113 2.82223
head 17.546 1.02279 3.75933
rclavicle 2.98177e-016 2.06736e-014
rhumerus -35.76 -20.6278 -72.6922
rradius 34.4226
rwrist 9.14843
rhand -16.6009 11.8372
rfingers 7.12502
rthumb 9.62039 -17.9232
lclavicle 2.98177e-016 2.06736e-014
lhumerus -32.5796 7.24562 80.5777
lradius 38.465
lwrist -1.2728
lhand -19.1085 25.1053
lfingers 7.12502
lthumb 7.20039 54.9628
rfemur -10.5396 6.52033 6.29978
rtibia 40.2041
rfoot -20.297 -4.8257
rtoes 0.537375
lfemur -4.39054 -3.30832 -21.7059
ltibia 15.4007
lfoot -8.38564 -4.41787
ltoes -17.6676
57
root -7.94034 17.8006 -8.34743 -26.9395 -78.7314 27.8368
lowerback 11.6809 1.75917 -1.81131
upperback 1.21482 2.10567 0.817496
thorax -5.37321 1.06589 1.53902
lowerneck -15.8464 3.50121 -8.47166
upperneck 41.196 5.76754 2.99201
head 17.4734 0.955401 3.81788
rclavicle -8.94531e-015 1.27222e-014
rhumerus -35.7748 -20.6679 -73.0433
rradius 34.6279
rwrist 9.36994
rhand -16.3967 11.9811
rfingers 7.12502
rthumb 9.8174 -17.7701
lclavicle -8.94531e-015 1.27222e-014
lhumerus -32.3807 7.35406 80.2964
lradius 38.5121
lwrist -1.0925
lhand -19.3901 25.074
lfingers 7.12502
lthumb 6.92856 54.9407
rfemur -10.6968 5.94648 7.59717
rtibia 40.4738
rfoot -21.0253 -4.24155
rtoes 0.30758
lfemur -4.46885 -3.31766 -21.4083
ltibia 16.1024
lfoot -8.8367 -4.20402
ltoes -18.8501
58
root -7.9408 17.8018 -8.29624 -25.6427 -78.8147 26.4674
lowerback 11.7076 1.79298 -1.73957
upperback 1.28108 2.16093 0.878015
thorax -5.32041 1.09042 1.55332
lowerneck -15.7862 3.47196 -8.38746
upperneck 41.0553 5.67933 3.01779
head 17.386 0.949875 3.79153
rclavicle -5.06901e-015 4.77083e-015
rhumerus -35.7119 -20.6331 -73.4608
rradius 34.8536
rwrist 9.22078
rhand -16.1801 12.1185
rfingers 7.12502
rthumb 10.0264 -17.6227
lclavicle -5.06901e-015 4.77083e-015
lhumerus -32.1561 7.4918 79.9644
lradius 38.7054
lwrist -0.444042
lhand -19.1626 25.4711
lfingers 7.12502
lthumb 7.14824 55.3303
rfemur -11.0406 5.27908 8.66008
rtibia 40.7461
rfoot -21.7816 -3.57159
rtoes -0.296345
lfemur -4.7175 -3.51021 -21.3072
ltibia 16.7846
lfoot -9.16203 -3.96769
ltoes -18.5521
59
root -7.94053 17.8007 -8.24978 -24.186 -78.8007 25.001
lowerback 11.7044 1.79182 -1.7178
upperback 1.28875 2.16568 0.94411
thorax -5.31261 1.09274 1.60974
lowerneck -15.7449 3.55017 -8.11135
upperneck 41.0541 5.74641 2.90261
head 17.385 1.00475 3.70106
rclavicle -2.13694e-014 -8.74653e-015
rhumerus -35.792 -20.5687 -73.8247
rradius 35.1514
rwrist 9.11357
rhand -16.4412 12.0688
rfingers 7.12502
rthumb 9.77449 -17.6844
lclavicle -2.13694e-014 -8.74653e-015
lhumerus -32.0506 7.70269 79.6061
lradius 38.8012
lwrist -0.154427
lhand -18.7356 25.9378
lfingers 7.12502
lthumb 7.56035 55.7827
rfemur -11.4386 4.57458 9.77152
rtibia 41.0292
rfoot -22.5105 -3.21565
rtoes -2.32746
lfemur -5.04216 -3.6018 -21.1854
ltibia 17.4282
lfoot -9.46162 -4.01792
ltoes -18.0644
